<mxfile host="65bd71144e">
    <diagram name="Page-1" id="5kq6qzsr6piIOPFzKDRj">
        <mxGraphModel dx="891" dy="383" grid="1" gridSize="10" guides="1" tooltips="1" connect="1" arrows="1" fold="1" page="1" pageScale="1" pageWidth="850" pageHeight="1100" math="0" shadow="0">
            <root>
                <mxCell id="0"/>
                <mxCell id="1" parent="0"/>
                <mxCell id="pWD9y1xGkp6Y5Sj-Ej4G-3" value="Class1" style="swimlane;fontStyle=0;childLayout=stackLayout;horizontal=1;startSize=26;fillColor=none;horizontalStack=0;resizeParent=1;resizeParentMax=0;resizeLast=0;collapsible=1;marginBottom=0;whiteSpace=wrap;html=1;" parent="1" vertex="1">
                    <mxGeometry x="20" y="30" width="140" height="70" as="geometry"/>
                </mxCell>
                <mxCell id="4" value="+ attribut: str" style="text;strokeColor=none;fillColor=none;align=left;verticalAlign=top;spacingLeft=4;spacingRight=4;overflow=hidden;rotatable=0;points=[[0,0.5],[1,0.5]];portConstraint=eastwest;" parent="pWD9y1xGkp6Y5Sj-Ej4G-3" vertex="1">
                    <mxGeometry y="26" width="140" height="44" as="geometry"/>
                </mxCell>
                <mxCell id="KTIFXc1jiv-__7u0APcr-1" value="Class2" style="swimlane;fontStyle=0;childLayout=stackLayout;horizontal=1;startSize=26;fillColor=none;horizontalStack=0;resizeParent=1;resizeParentMax=0;resizeLast=0;collapsible=1;marginBottom=0;whiteSpace=wrap;html=1;" parent="1" vertex="1">
                    <mxGeometry x="310" y="26" width="140" height="78" as="geometry"/>
                </mxCell>
                <mxCell id="7" value="- item: str" style="text;strokeColor=none;fillColor=none;align=left;verticalAlign=top;spacingLeft=4;spacingRight=4;overflow=hidden;rotatable=0;points=[[0,0.5],[1,0.5]];portConstraint=eastwest;" parent="KTIFXc1jiv-__7u0APcr-1" vertex="1">
                    <mxGeometry y="26" width="140" height="26" as="geometry"/>
                </mxCell>
                <mxCell id="6" value="+ iteeem: SetEnum" style="text;strokeColor=none;fillColor=none;align=left;verticalAlign=top;spacingLeft=4;spacingRight=4;overflow=hidden;rotatable=0;points=[[0,0.5],[1,0.5]];portConstraint=eastwest;" parent="KTIFXc1jiv-__7u0APcr-1" vertex="1">
                    <mxGeometry y="52" width="140" height="26" as="geometry"/>
                </mxCell>
                <mxCell id="tdBULYD_MiiEJaObMa5w-11" value="" style="endArrow=none;html=1;edgeStyle=orthogonalEdgeStyle;rounded=0;entryX=0;entryY=0.5;entryDx=0;entryDy=0;exitX=1;exitY=0.5;exitDx=0;exitDy=0;" parent="1" source="pWD9y1xGkp6Y5Sj-Ej4G-3" target="KTIFXc1jiv-__7u0APcr-1" edge="1">
                    <mxGeometry relative="1" as="geometry">
                        <mxPoint x="560" y="270" as="sourcePoint"/>
                        <mxPoint x="720" y="270" as="targetPoint"/>
                        <Array as="points">
                            <mxPoint x="230" y="56"/>
                            <mxPoint x="230" y="69"/>
                        </Array>
                    </mxGeometry>
                </mxCell>
                <mxCell id="tdBULYD_MiiEJaObMa5w-12" value="parent[*]" style="edgeLabel;resizable=0;html=1;align=left;verticalAlign=bottom;" parent="tdBULYD_MiiEJaObMa5w-11" connectable="0" vertex="1">
                    <mxGeometry x="-1" relative="1" as="geometry"/>
                </mxCell>
                <mxCell id="tdBULYD_MiiEJaObMa5w-13" value="child" style="edgeLabel;resizable=0;html=1;align=right;verticalAlign=bottom;" parent="tdBULYD_MiiEJaObMa5w-11" connectable="0" vertex="1">
                    <mxGeometry x="1" relative="1" as="geometry"/>
                </mxCell>
                <mxCell id="8" value="5..9" style="edgeLabel;html=1;align=center;verticalAlign=middle;resizable=0;points=[];" parent="tdBULYD_MiiEJaObMa5w-11" vertex="1" connectable="0">
                    <mxGeometry x="0.8037" y="1" relative="1" as="geometry">
                        <mxPoint y="12" as="offset"/>
                    </mxGeometry>
                </mxCell>
                <mxCell id="8szr33BgHz_Jr8INxtCK-1" value="&amp;lt;&amp;lt;Enum&amp;gt;&amp;gt;&lt;br&gt;SetEnum" style="swimlane;fontStyle=0;childLayout=stackLayout;horizontal=1;startSize=30;fillColor=none;horizontalStack=0;resizeParent=1;resizeParentMax=0;resizeLast=0;collapsible=1;marginBottom=0;whiteSpace=wrap;html=1;" parent="1" vertex="1">
                    <mxGeometry x="570" y="100" width="110" height="70" as="geometry"/>
                </mxCell>
                <mxCell id="8szr33BgHz_Jr8INxtCK-2" value="- set1" style="text;strokeColor=none;fillColor=none;align=left;verticalAlign=top;spacingLeft=4;spacingRight=4;overflow=hidden;rotatable=0;points=[[0,0.5],[1,0.5]];portConstraint=eastwest;whiteSpace=wrap;html=1;" parent="8szr33BgHz_Jr8INxtCK-1" vertex="1">
                    <mxGeometry y="30" width="110" height="40" as="geometry"/>
                </mxCell>
                <mxCell id="8szr33BgHz_Jr8INxtCK-5" value="" style="endArrow=block;endSize=16;endFill=0;html=1;rounded=0;" parent="1" source="8szr33BgHz_Jr8INxtCK-6" target="pWD9y1xGkp6Y5Sj-Ej4G-3" edge="1">
                    <mxGeometry width="160" relative="1" as="geometry">
                        <mxPoint x="60" y="200" as="sourcePoint"/>
                        <mxPoint x="190" y="200" as="targetPoint"/>
                    </mxGeometry>
                </mxCell>
                <mxCell id="8szr33BgHz_Jr8INxtCK-6" value="ExtendedClass1" style="swimlane;fontStyle=0;childLayout=stackLayout;horizontal=1;startSize=26;fillColor=none;horizontalStack=0;resizeParent=1;resizeParentMax=0;resizeLast=0;collapsible=1;marginBottom=0;whiteSpace=wrap;html=1;" parent="1" vertex="1">
                    <mxGeometry x="20" y="220" width="140" height="52" as="geometry"/>
                </mxCell>
                <mxCell id="15" style="edgeStyle=none;html=1;exitX=0.5;exitY=0;exitDx=0;exitDy=0;endArrow=none;endFill=0;" parent="1" source="11" target="KTIFXc1jiv-__7u0APcr-1" edge="1">
                    <mxGeometry relative="1" as="geometry"/>
                </mxCell>
                <mxCell id="16" value="metodologie" style="edgeLabel;html=1;align=center;verticalAlign=middle;resizable=0;points=[];" parent="15" vertex="1" connectable="0">
                    <mxGeometry x="0.7493" y="-3" relative="1" as="geometry">
                        <mxPoint x="27" y="1" as="offset"/>
                    </mxGeometry>
                </mxCell>
                <mxCell id="17" value="1..10" style="edgeLabel;html=1;align=center;verticalAlign=middle;resizable=0;points=[];" parent="15" vertex="1" connectable="0">
                    <mxGeometry x="0.7708" y="1" relative="1" as="geometry">
                        <mxPoint x="-19" y="1" as="offset"/>
                    </mxGeometry>
                </mxCell>
                <mxCell id="18" value="sdddsd" style="edgeLabel;html=1;align=center;verticalAlign=middle;resizable=0;points=[];" parent="15" vertex="1" connectable="0">
                    <mxGeometry x="-0.3684" y="2" relative="1" as="geometry">
                        <mxPoint x="22" y="17" as="offset"/>
                    </mxGeometry>
                </mxCell>
                <mxCell id="11" value="ClasswithM" style="swimlane;fontStyle=1;align=center;verticalAlign=top;childLayout=stackLayout;horizontal=1;startSize=26;horizontalStack=0;resizeParent=1;resizeParentMax=0;resizeLast=0;collapsible=1;marginBottom=0;" parent="1" vertex="1">
                    <mxGeometry x="300" y="203" width="160" height="140" as="geometry"/>
                </mxCell>
                <mxCell id="12" value="+ fild: int" style="text;strokeColor=none;fillColor=none;align=left;verticalAlign=top;spacingLeft=4;spacingRight=4;overflow=hidden;rotatable=0;points=[[0,0.5],[1,0.5]];portConstraint=eastwest;" parent="11" vertex="1">
                    <mxGeometry y="26" width="160" height="26" as="geometry"/>
                </mxCell>
                <mxCell id="13" value="" style="line;strokeWidth=1;fillColor=none;align=left;verticalAlign=middle;spacingTop=-1;spacingLeft=3;spacingRight=3;rotatable=0;labelPosition=right;points=[];portConstraint=eastwest;strokeColor=inherit;" parent="11" vertex="1">
                    <mxGeometry y="52" width="160" height="8" as="geometry"/>
                </mxCell>
                <mxCell id="19" value="+ notify(str sms=&quot;message&quot;)" style="text;strokeColor=none;fillColor=none;align=left;verticalAlign=top;spacingLeft=4;spacingRight=4;overflow=hidden;rotatable=0;points=[[0,0.5],[1,0.5]];portConstraint=eastwest;" parent="11" vertex="1">
                    <mxGeometry y="60" width="160" height="30" as="geometry"/>
                </mxCell>
                <mxCell id="14" value="+ findbook(title:str): Class1" style="text;strokeColor=none;fillColor=none;align=left;verticalAlign=top;spacingLeft=4;spacingRight=4;overflow=hidden;rotatable=0;points=[[0,0.5],[1,0.5]];portConstraint=eastwest;" parent="11" vertex="1">
                    <mxGeometry y="90" width="160" height="50" as="geometry"/>
                </mxCell>
            </root>
        </mxGraphModel>
    </diagram>
</mxfile>